<svg xmlns="http://www.w3.org/2000/svg" width="353.426" height="376.491" viewBox="0 0 353.426 376.491">
  <g id="_00_-_Global_Polygon_Line_merged" data-name="00 - Global Polygon Line merged" transform="translate(-64.4 -44.13)">
    <path id="Path_14" data-name="Path 14" d="M597.54,174.09h0v.006Z" transform="translate(-229.81 -56.019)" fill="none"/>
    <path id="Path_15" data-name="Path 15" d="M429.837,75.09l-29.477,96.6,21.461-2.293,31.309-41.693L432.767,67.25l-.159.148-3.175,7.573Z" transform="translate(-144.816 -9.966)" fill="none"/>
    <path id="Path_16" data-name="Path 16" d="M450.729,214.1l-.358,21.91,39.3-31.087,39.058-30.757.045-.068-58.539.267L438.11,215.457Z" transform="translate(-161.088 -56.024)" fill="none"/>
    <path id="Path_17" data-name="Path 17" d="M331.509,256.94,291.37,268.2l39.047,27.787Z" transform="translate(-97.836 -91.732)" fill="none"/>
    <path id="Path_18" data-name="Path 18" d="M459.63,237.361l-.04,2.173,31.912,3.931L536.831,177.2l-37.636,29.4Z" transform="translate(-170.347 -57.36)" fill="none"/>
    <path id="Path_19" data-name="Path 19" d="M416.78,246.43,362.9,252.188l-1.115,39.906,53.885,21.922Z" transform="translate(-128.186 -87.201)" fill="none"/>
    <path id="Path_20" data-name="Path 20" d="M356.541,99.456c-.58-1.474-1.144-2.947-1.707-4.426-.62-1.627-1.24-3.254-1.838-4.887-1.195-3.266-2.429-6.52-3.59-9.8l-3.5-9.831c-1.132-3.2-2.208-6.412-3.317-9.615l-5.57-1.138L331.2,58.5c-1.94-.421-3.88-.831-5.815-1.286-1.923-.438-3.852-.865-5.775-1.331l4.222,9.712q3.363,7.715,6.662,15.458l6.617,15.475,6.327,15.015.028.068Z" transform="translate(-110.008 -5.065)" fill="none"/>
    <path id="Path_21" data-name="Path 21" d="M429.122,76.287c-.04-1.326-.034-2.646-.057-3.966,0-.956.017-1.912.029-2.862-.91,1.422-1.826,2.839-2.765,4.244-1.183,1.792-2.4,3.567-3.613,5.342S420.258,82.569,419,84.31c-1.115,1.536-2.264,3.061-3.425,4.574l9.991-9.3Z" transform="translate(-151.372 -10.919)" fill="none"/>
    <path id="Path_22" data-name="Path 22" d="M237.713,134.7c2.964-6.008,5.98-11.993,8.984-17.979l7.339-14.491L242.123,92.97l-11.817-9.28c.421,5.627.865,11.254,1.252,16.892l1.252,17.677.034.495-.495.028-9.268.552.137.41,10.611,10.924Z" transform="translate(-68.399 -17.052)" fill="none"/>
    <path id="Path_23" data-name="Path 23" d="M374.591,166.061l20.943-49.095,16.084-37.443,1.405-4.608.512.154,3.237-7.539-12.9,11.976L390.22,92.126l-26.57,24.556Z" transform="translate(-128.992 -10.087)" fill="none"/>
    <path id="Path_24" data-name="Path 24" d="M332.79,179.7l27.5,24.488-10.8-48.725Z" transform="translate(-115.69 -47.989)" fill="none"/>
    <path id="Path_25" data-name="Path 25" d="M330.151,306.553,291.4,278.97,311.945,327.1Z" transform="translate(-97.849 -101.228)" fill="none"/>
    <path id="Path_26" data-name="Path 26" d="M458.63,320.526l40.634,12.113.922-39-41.027-5.058Z" transform="translate(-169.933 -105.37)" fill="none"/>
    <path id="Path_27" data-name="Path 27" d="M596.64,297.822l-21.347-.347-21.347-.37-20.835-.415-.5,21.341,81.94-19.982Z" transform="translate(-201.822 -108.866)" fill="none"/>
    <path id="Path_28" data-name="Path 28" d="M458.89,451l42.37,31.8L460.455,442Z" transform="translate(-170.045 -171.502)" fill="none"/>
    <path id="Path_29" data-name="Path 29" d="M211.7,246.256l-.472.609c.518,4.131,1.058,8.4,1.411,11.151.808,6.469,1.65,12.9,2.4,19.327,10.07-2.725,23.867-6.395,33.932-9.029-10.082-7.795-24.852-19.452-35.656-27.947l-.358.046.347-.051c-1.041-.819-2.06-1.622-3.021-2.373-.051-.04-.108-.08-.159-.119.011.114.023.233.034.347.245,2.008.58,4.717.939,7.573Z" transform="translate(-62.813 -83.512)" fill="none"/>
    <path id="Path_30" data-name="Path 30" d="M498.243,358.467,458.462,346.61l-.182,11.282.011.04h0l5.382,18.4Z" transform="translate(-169.782 -130.384)" fill="none"/>
    <path id="Path_31" data-name="Path 31" d="M253.395,178.414l-.319-.745,42.5-11.914,20.283-2.168,27.856-91.294L328.393,108.8l-21.125,50,.034.159-.114.023-.091.21-.171.427-.341-.307-.176-.154-.114.023-.034-.159L277.9,133.916c-.506,1.735-1.047,3.454-1.576,5.177q-.879,2.782-1.8,5.542-1.835,5.53-3.795,11.015l-.04.108-.074.074c-1.2,1.223-2.39,2.458-3.6,3.664s-2.418,2.429-3.636,3.63-2.441,2.4-3.681,3.59c-1.252,1.172-2.481,2.373-3.749,3.527,1.109-1.3,2.264-2.572,3.4-3.857q1.715-1.9,3.465-3.795c1.161-1.263,2.333-2.5,3.516-3.755,1.138-1.223,2.316-2.424,3.471-3.636q1.912-5.445,3.931-10.844c.677-1.821,1.377-3.63,2.088-5.445.677-1.678,1.337-3.362,2.037-5.035l-.1-.085-.256-.222.193-.279,17.012-24.829.028-.04.034-.034.1-.091-.028-.068-6.736-14.85-6.873-15.362q-3.439-7.681-6.822-15.384L268.051,48.17c-2.941,5.758-5.928,11.5-8.91,17.239l-9.422,18.144-9.513,18.093c-3.146,5.923-6.276,11.846-9.45,17.746l7.493,7.817c7.26,7.55,14.434,15.174,21.649,22.764-.614-5.593-1.178-11.186-1.764-16.773l-1.889-18.258-1.8-18.263c-.569-6.093-1.161-12.181-1.7-18.28.768,6.065,1.474,12.147,2.208,18.223l2.1,18.229,2.02,18.246c.66,6.082,1.36,12.164,1.986,18.246l.154,1.491-1.024-1.092c-7.493-8.011-15.037-15.965-22.485-24.015l-11.186-12.062L216.271,104.49l4.136,12.38.2.6-.632.034-13.074.654c1.855,6.5,3.647,13.012,5.468,19.521l2.788,10.036,2.754,10.048.028.108-.108.011-5.786.7c11.089,8.341,25.785,19.3,36.259,27.327Z" transform="translate(-61.425 -1.741)" fill="none"/>
    <path id="Path_32" data-name="Path 32" d="M294.641,299.628l-8.779-20.568-4.762,7c.188.142.387.3.569.438l-.307.085Z" transform="translate(-93.409 -101.267)" fill="none"/>
    <path id="Path_33" data-name="Path 33" d="M437.33,482.351l62.4,15.157-50.483-37.9Z" transform="translate(-160.752 -179.093)" fill="none"/>
    <path id="Path_34" data-name="Path 34" d="M443.781,401.46,413.61,417.055l24.9,15.4,5.342-30.752Z" transform="translate(-150.527 -154.027)" fill="none"/>
    <path id="Path_35" data-name="Path 35" d="M297.755,509.288l-9.388,3.18-9.422,3.084c-3.05.973-6.1,1.946-9.166,2.879a4.284,4.284,0,0,1,.33.313c2.93.233,16.517,1.377,19.111,1.587l.211.017c.046-.04.085-.074.131-.108l16.352-13.74Q301.843,507.908,297.755,509.288Z" transform="translate(-88.529 -199.305)" fill="none"/>
    <path id="Path_36" data-name="Path 36" d="M336.945,446.735l-5.769,2.617c-.626,2.344-1.292,4.677-1.934,7.015l-2.162,7.527c-.723,2.515-1.451,5.018-2.207,7.516l-2.259,7.5-.068.233-.239.08-1.178.41L304.97,493.531a2.1,2.1,0,0,1,1.36.5,4.134,4.134,0,0,1,.831,1.821c7.1,22.234,21.865,69.3,29.392,93.268,7.095-33.46,17.057-79.363,24.123-111.827-.279-.415-14.867-28.743-16.96-32.828-.04-.08-.08-.148-.108-.2Z" transform="translate(-103.698 -172.476)" fill="none"/>
    <path id="Path_37" data-name="Path 37" d="M429.1,481.233l-7.465-7.732L408,470.19l12.779-24.4L394.927,429.8l-22.087,8.227c.028.063.068.131.108.211,2.173,4.085,17.45,32.777,17.484,32.845-3.05,14.8-6.776,32.493-10.6,50.523l12.312-24.232c.267-2.151.569-4.3.853-6.446l.9-6.7c.3-2.236.626-4.461.939-6.691l.973-6.691h.023l-.66,6.725c-.228,2.247-.438,4.489-.694,6.725l-.734,6.719c-.216,1.951-.421,3.909-.649,5.866l21.347-9.558,36.931,16.693L437.1,489.466Z" transform="translate(-132.953 -166.243)" fill="none"/>
    <path id="Path_38" data-name="Path 38" d="M430.113,532.88l-20.943,9.376,12.221,9.058,11.965,9.018c-.58-4.489-1.092-8.978-1.633-13.467q-.444-3.636-.831-7.271l-.728-6.691Z" transform="translate(-148.613 -210.676)" fill="none"/>
    <path id="Path_39" data-name="Path 39" d="M240.272,523.181l-.415-.387c-.051.017-.1.034-.159.051.051-.017.1-.04.148-.057l-6.526-6.082-.336-.176-16.647,16.153L200.69,547.737l6.935,13.672c2.264,4.438,4.495,8.887,6.725,13.342l30.075-33.409,7.607-8.449,3.8-4.227,1.9-2.117.956-1.058c.176-.171.347-.313.518-.455l-3.624-.353S240.289,523.215,240.272,523.181Z" transform="translate(-58.748 -203.628)" fill="none"/>
    <path id="Path_40" data-name="Path 40" d="M169.607,535.376l-1.576,1.519-.831.8.2-1.138q2.142-12.349,4.364-24.675l4.3-24.038-33.352,1.718-14.127.711.927,16.05q.461,7.817.859,15.635l14.394-12.176L159.7,497.25l.831-.694-.046,1.087-.819,19.691-.882,19.5L171.1,549.781l11.038,11.686q-2.978-6.119-5.911-12.261Z" transform="translate(-27.665 -191.261)" fill="none"/>
    <path id="Path_41" data-name="Path 41" d="M511.581,516.59l-.461-.114-52.44-12.739,7.658,7.487,8.187,8.051,16.1,15.976.1.04-.011.028,27.162.023,26.45.159-13.524-17.455-7-9.115-6.867-9.012Z" transform="translate(-169.955 -196.469)" fill="none"/>
    <path id="Path_42" data-name="Path 42" d="M513.186,338.887l-24.6,12.71,16.955,7.521.074.074,24.493,26.075,18.2-6.617,14.821-5.365-38.854,5.143,42.182-6.611-4.176-31.605-48.23-1.684,47.655.654-8.887-11.874-.313-.421.449-.267,22.889-13.86,19.987-12.01-82.2,19.037Z" transform="translate(-182.847 -110.616)" fill="none"/>
    <path id="Path_43" data-name="Path 43" d="M162.75,446.682l29.38-25.409,5.576-26.513-7.305,3.584-93.581,52,15.163-.888,16.995-.944Z" transform="translate(-13.975 -151.139)" fill="none"/>
    <path id="Path_44" data-name="Path 44" d="M475.976,391.181v-.011l-10.395,5.377.193.666-.017.114-3.738,21.523,46.432,46.432,3.96,2.97L524.161,431.6l-30.672-32.646Z" transform="translate(-171.394 -149.592)" fill="none"/>
    <path id="Path_45" data-name="Path 45" d="M186.744,349.083l.085.171L215.288,335.7l-38.182,68.319L215,359.012l-39.309,48.241L234.6,380.535l-1.707-21.284,2.668,20.92,28.083-10.463,31.127-16.09L289.4,335.292l-32.942.945,31.042-1.843-52.133-21.21-.006.222-.41-.29L215.6,334.962l-11.538-27.025-.028.028L188.61,292.82c-10.179,2.754-23.72,6.287-33.921,8.961L185.031,326.8l-.33.4.046.512-5.615.478L70.706,359.757,187.916,343.3,68.59,360.582l51.518,21.159Zm76.922,20.2-.774.677-16.8-19.942Z" transform="translate(-1.806 -107.198)" fill="none"/>
    <path id="Path_46" data-name="Path 46" d="M108.514,361.363l-.154.182-.176-.154-16.295,1.394L68.42,386.977,173.949,355.77Z" transform="translate(-1.733 -134.333)" fill="none"/>
    <path id="Path_47" data-name="Path 47" d="M156.55,268.419v.165l.023.011c-.973-8.768-2.065-20.027-3.061-29.989L127.295,218.26l16.158,19.771-.358.3,10.423,1.94-.188,1.013L76.63,227l79.6,41.42Z" transform="translate(-5.272 -75.059)" fill="none"/>
    <path id="Path_48" data-name="Path 48" d="M180.669,332.972l.319-.091.017.063,4.131-.353L155.192,307.9l-.193.051-.023-.193-.734-.381L72.62,306.26l37.721,32.726Z" transform="translate(-3.543 -112.991)" fill="none"/>
    <path id="Path_49" data-name="Path 49" d="M105.747,263.71l.3.432L73.01,286.895l79.363,1.081Z" transform="translate(-3.711 -94.65)" fill="none"/>
    <path id="Path_50" data-name="Path 50" d="M229.195,473.557,235.96,441.4l-28.675,26.138-4.466,24.488q-2.142,11.76-4.318,23.515l16.579-15.578,16.966-15.817-.131-.068,8.739-15.714Z" transform="translate(-57.804 -171.243)" fill="none"/>
    <path id="Path_51" data-name="Path 51" d="M131.778,430.2l-.216-.091-17.876-7.339L104.332,438.4q-4.352,7.305-8.762,14.565l92.471-50.335Z" transform="translate(-13.436 -154.532)" fill="none"/>
    <path id="Path_52" data-name="Path 52" d="M267.348,384.719,255.77,439.764,293.5,372.27Z" transform="translate(-82.49 -141.445)" fill="none"/>
    <path id="Path_53" data-name="Path 53" d="M273.723,492.077l9.319-3.38,9.354-3.283c3.038-1.07,6.082-2.134,9.137-3.158l2.259-7.237c.768-2.5,1.57-4.984,2.384-7.47l2.429-7.453c.774-2.287,1.525-4.574,2.316-6.856l-44.56,20.209-7.863,16.2-.438-.228c.245.222,5.28,4.768,6.657,6.031C267.7,494.3,270.713,493.2,273.723,492.077Z" transform="translate(-83.477 -176.347)" fill="none"/>
    <path id="Path_54" data-name="Path 54" d="M210.265,237.975l-.159-.125H210.1c.011.108.028.239.046.353-.011-.114-.023-.233-.034-.347C210.157,237.9,210.214,237.935,210.265,237.975Z" transform="translate(-62.804 -83.503)" fill="#ff2770"/>
    <path id="Path_55" data-name="Path 55" d="M417.826,188.307l-1.092-.011-.023-.085-.347.085h-.194l-21.347-.2-21.353-.131-21.353-.1-20.835-.046.011-.455-10.144-1.252,41.693-59.358c3.414-2.139,6.8-4.324,10.2-6.486l9.8-6.344c-2.594,5.763-5.109,11.561-7.669,17.342-2.737,6.173-5.4,12.375-8.085,18.576l-4.023,9.3-3.954,9.331q-3.96,9.319-7.806,18.7,4.259-9.191,8.409-18.434l4.153-9.24,4.085-9.274c2.725-6.179,5.462-12.358,8.125-18.559s5.388-12.38,8.011-18.61l.506-1.206-1.075.728-10.747,7.288c-3.283,2.264-6.588,4.512-9.866,6.8l5.627-8.011-.279-.193.569-.444.728-.563h-.922l-59.546.1L288.64,56.243l-.239-.723-.563.512L277.8,65.323c.154-1.3.262-2.606.4-3.9.125-1.422.239-2.833.336-4.256l.1-1.405-.831,1.166c-1.252,1.752-2.486,3.516-3.687,5.291-1.217,1.769-2.4,3.567-3.584,5.359q-1.758,2.705-3.471,5.433-1.587,2.552-3.1,5.16l-3.385,3.152L246.566,94.357c-.461-1.508-.939-3-1.417-4.512-.529-1.661-1.053-3.323-1.6-4.967-1.1-3.3-2.156-6.617-3.294-9.905L236.86,65.1c-1.132-3.289-2.321-6.554-3.482-9.837l-.091-.256-.262-.046-5.849-1.109-5.86-1.053q-2.936-.538-5.872-1.03c-1.946-.33-3.892-.66-5.849-.962l-2.486-5.724-.41-.956-.478.927c-3.158,6.042-6.253,12.107-9.365,18.167l-9.319,18.189-1.889,3.732L173.98,75.57,161.707,65.6,161.1,65.1l.046.791c.364,5.894.706,11.794,1.1,17.689l1.132,17.188-9.445.518-.671.034.222.637,4.375,12.881-13.006.705-.563.028.159.535c1.923,6.674,3.92,13.325,5.877,19.987l2.964,9.985,2.97,9.871-5.661.859c-1.075-.808-2.128-1.6-3.129-2.355.962.757,1.974,1.553,3.021,2.373l-.347.051.358-.046c10.8,8.494,25.574,20.158,35.656,27.947-10.065,2.629-23.862,6.3-33.932,9.029-.745-6.429-1.587-12.853-2.4-19.327-.358-2.748-.9-7.021-1.411-11.151l.472-.609-.609-.472c-.358-2.862-.694-5.57-.939-7.573.245,2.327.495,4.825.757,7.436l-27.071-21.006,32.385,8.324.256-1-36.31-9.336,19.606,23.987L64.747,149.659,101.53,168.8l-34.695,23.89,38.529,33.431-15.493,1.326-.193.017L64.4,253.52l35.838,14.719L90.572,283.68q-4.822,7.664-9.558,15.362l-.25.137.08.142c-.028.051-.063.1-.091.148l-.324.512.609-.028.148-.006.074.137.279-.154,16.5-.779,2.862-.142.569,16.079q.282,8.142.626,16.289l.028.637.495-.41,15.032-12.4L131.8,307.428l-.836,18.616-.819,19.691v.2l.137.142,12.528,13.035L155.392,372.1l1.405,1.451-.711-1.428,29.972-34.057,7.51-8.54,3.755-4.267,1.883-2.134.939-1.064c.2-.2.432-.4.666-.6.495.051,1.172.051,1.5.438.37.3.54,1.218.688,1.639l2.247,7.328c5.775,18.889,21.125,68.376,27.2,87.92l.569,1.832.4-1.883c3.829-18.058,8.557-40.191,13.165-61.936l.58.3,12.67-24.937,12.329,9.3,12.881,9.564.859.637-.137-1.058c-.637-4.842-1.371-9.655-2.065-14.491-.341-2.407-.706-4.825-1.087-7.237l-1.041-6.634,38.757,17.524.017-.034.011.011h.188l27.361.165,27.361.028h.927l-.569-.723L361.3,321.22l-7.2-8.967-7.123-8.807,6.958-21.7-6.662-7.095,18.309-6.3L383.08,262.3l.973-.131-.028-.2.063-.023.233-.08-.034-.245-4.028-32.584-.011-.119-.068-.1-9.132-12.284,22.479-13.518,22.422-13.575,1.007-.233-.08-.33Zm-86.537-.484,20.835.415,21.347.37,21.347.341,17.91.228-81.94,19.987Zm-1.035.444-.922,39L288.7,215.156l.529-31.946ZM288.845,279.5l1.565-9,40.8,40.8Zm50.13,38.916-62.4-15.157,11.914-22.741Zm-50.989-39.986-24.9-15.4,30.171-15.595.068.245Zm.523-50.881h0l-.011-.04.188-11.282,39.775,11.857L293.9,245.948ZM187.691,184.8l4.762-7,8.779,20.568-13.279-13.04c.1-.028.21-.057.307-.085C188.073,185.093,187.879,184.939,187.691,184.8Zm5.86-7.055L232.3,205.325l-18.2,20.55Zm-.017-1.274,40.139-11.259-1.092,39.047Zm41.175-11.481,53.885-5.758-1.115,67.585-53.885-21.922Zm86.446,21.119-31.907-3.937.034-2.173,39.565-30.757,37.636-29.4Zm46.574-68.035Zm-58.579.273,58.539-.267-.046.068L328.586,148.9l-39.309,31.087.364-21.91-12.619,1.348Zm-21.2-61.06,20.368,60.457-31.309,41.693-21.461,2.293,29.472-96.6-.4-.125,3.175-7.573ZM267.629,73.391c1.263-1.741,2.5-3.5,3.721-5.263s2.429-3.55,3.613-5.342c.939-1.405,1.855-2.822,2.765-4.244-.011.956-.028,1.912-.028,2.862.017,1.32.011,2.64.057,3.966l-3.562,3.3-9.991,9.3Q265.945,75.7,267.629,73.391Zm-6.4,8.648,13.655-12.625,12.9-11.971-3.237,7.539-.506-.154-1.405,4.608-16.084,37.448L245.6,155.98l-10.941-49.385ZM244.6,156.2l-27.5-24.488,16.7-24.232Zm-89.917-53.925,9.268-.552.495-.028-.034-.495-1.252-17.677c-.387-5.633-.831-11.265-1.252-16.892l11.817,9.28,11.914,9.262L178.3,99.659c-3,5.985-6.02,11.976-8.984,17.979l-3.886-4.045-10.611-10.924Zm-4.074,54.568,5.786-.7.108-.011-.028-.108-2.754-10.048-2.788-10.036c-1.821-6.509-3.618-13.023-5.468-19.521l13.074-.654.632-.034-.2-.6-4.136-12.38,10.247,11.174,11.186,12.062c7.448,8.051,14.992,16,22.485,24.015l1.024,1.092-.154-1.491c-.626-6.082-1.326-12.164-1.986-18.246l-2.02-18.246-2.1-18.229c-.734-6.076-1.439-12.158-2.208-18.223.535,6.093,1.127,12.181,1.7,18.28l1.8,18.263,1.889,18.258c.586,5.587,1.149,11.186,1.764,16.773-7.214-7.59-14.389-15.214-21.649-22.764l-7.5-7.812c3.18-5.9,6.3-11.828,9.45-17.746l9.513-18.093L197.7,63.673c2.976-5.741,5.963-11.481,8.91-17.239L212.981,60.9q3.38,7.7,6.822,15.384l6.873,15.362,6.736,14.85-6.327-15.015L220.469,76q-3.3-7.741-6.662-15.458l-4.222-9.712c1.923.467,3.852.893,5.775,1.331,1.934.455,3.869.865,5.815,1.286l5.82,1.257,5.57,1.138c1.109,3.2,2.19,6.418,3.317,9.615l3.5,9.831c1.161,3.283,2.4,6.537,3.59,9.8.6,1.633,1.223,3.26,1.838,4.887.563,1.479,1.127,2.953,1.707,4.426l-13.08,12.158-.028-.068.028.068-.1.091-.034.034-.028.04L216.258,131.56l-.193.279.256.222.1.085c-.705,1.673-1.36,3.357-2.037,5.035q-1.058,2.714-2.088,5.445-2.023,5.394-3.931,10.844c-1.155,1.212-2.327,2.412-3.471,3.636-1.183,1.252-2.355,2.492-3.516,3.755s-2.321,2.526-3.465,3.795c-1.138,1.286-2.293,2.555-3.4,3.857,1.269-1.155,2.5-2.355,3.749-3.527q1.852-1.784,3.681-3.59c1.223-1.2,2.429-2.418,3.636-3.63s2.4-2.441,3.6-3.664l.074-.074.04-.108q1.954-5.488,3.795-11.015c.609-1.838,1.218-3.687,1.8-5.542.529-1.73,1.07-3.442,1.576-5.177L244.814,157.3l.034.159.114-.023.176.154.341.307.171-.427.091-.211.114-.023-.034-.159,21.125-50,15.322-36.509-27.856,91.294-20.283,2.168-42.5,11.914.319.745-5.1,7.5C176.4,176.149,161.7,165.185,150.607,156.839Zm-79.255-4.9,76.7,14.281.188-1.013-10.423-1.94.358-.3L122.018,143.2l26.217,20.346c1,9.962,2.088,21.222,3.061,29.989l-.023-.011v-.165l-.324-.006Zm30.979,17.558-.3-.432,46.625,24.26-79.368-1.081ZM69.077,193.269l81.621,1.109.74.387.023.193.193-.051L181.592,219.6l-4.131.353-.017-.063-.313.091L106.8,225.995Zm21.08,35.184,16.295-1.394.176.154.159-.182,65.429-5.593L66.687,252.644ZM66.784,253.384,186.11,236.1,68.9,252.559,177.319,221l5.616-.478-.046-.512.33-.4-30.342-25.022c10.2-2.668,23.742-6.207,33.921-8.961l15.424,15.145.028-.028,11.538,27.025,19.356-21.848.41.29.006-.222,52.133,21.21-31.042,1.843,32.942-.944,5.365,18.326-31.127,16.09-28.083,10.463-2.668-20.92,1.707,21.284-58.909,26.718,39.309-48.241-37.892,45.01,38.182-68.319-28.459,13.552-.085-.171L118.3,274.537ZM174.236,312.9,157.27,328.719,140.69,344.3q2.193-11.752,4.318-23.515l4.466-24.488,28.675-26.138-6.765,32.157,11.459-5.194L174.1,312.833Zm10.622-69.628L211,230.825,173.28,298.319Zm-9.837,70.032,7.863-16.2,44.56-20.209c-.791,2.281-1.548,4.569-2.316,6.856L222.7,291.2c-.808,2.486-1.616,4.967-2.384,7.47l-2.259,7.237c-3.05,1.024-6.1,2.088-9.137,3.158l-9.354,3.283-9.319,3.38c-3.01,1.121-6.019,2.225-9.006,3.38-1.377-1.263-6.412-5.815-6.657-6.031ZM90.9,283.868l9.354-15.629,17.876,7.339.216.091L174.6,248.1,82.128,298.433C85.059,293.586,87.994,288.738,90.9,283.868Zm7.112,14.451-15.157.888,93.575-52,7.311-3.584-5.576,26.513-29.381,25.409L115,297.381Zm45.431,60.195-12.323-12.949.882-19.5.819-19.691.046-1.087-.831.694L117.1,318.512,102.7,330.687c-.273-5.212-.546-10.423-.859-15.635L100.915,299l14.127-.711,33.352-1.718-4.3,24.038q-2.2,12.332-4.364,24.675l-.2,1.138.831-.8,1.576-1.519,6.628,13.825q2.927,6.145,5.911,12.261Zm56.5-36.646-.956,1.058-1.9,2.116-3.8,4.227-7.607,8.449L155.6,371.128q-3.337-6.682-6.725-13.342l-6.935-13.672,15.646-15.054,16.647-16.152.336.176,6.526,6.082c-.051.017-.1.04-.148.057.051-.017.1-.034.159-.051l.415.387c.011.034,15.3,1.5,15.3,1.5l3.624.353C200.288,321.55,200.117,321.7,199.941,321.868Zm.962-.831-.211-.017c-2.594-.2-16.181-1.354-19.111-1.587a4.265,4.265,0,0,0-.33-.313c3.067-.933,6.111-1.912,9.166-2.879l9.422-3.084,9.388-3.18q4.088-1.383,8.159-2.8l-16.352,13.74C200.988,320.964,200.948,321,200.9,321.038Zm81.371,7.88q.393,3.636.831,7.271c.541,4.495,1.053,8.984,1.633,13.467l-11.965-9.018-12.221-9.058,20.943-9.376.051.023Zm-.774-7.84-21.347,9.558c.228-1.951.432-3.909.649-5.866l.734-6.719c.256-2.236.467-4.483.694-6.725l.66-6.725h-.023l-.973,6.691c-.313,2.23-.643,4.455-.939,6.691l-.9,6.7c-.285,2.145-.586,4.29-.853,6.446l-12.312,24.232c3.823-18.03,7.55-35.724,10.6-50.523-.04-.068-15.316-28.76-17.484-32.845,2.094,4.085,16.682,32.419,16.96,32.828-7.061,32.464-17.023,78.367-24.123,111.827-7.521-23.964-22.291-71.033-29.392-93.268a4.134,4.134,0,0,0-.831-1.821,2.1,2.1,0,0,0-1.36-.5l16.158-13.894,1.178-.41.239-.08.068-.233,2.259-7.5c.762-2.5,1.491-5,2.208-7.516l2.162-7.527c.643-2.338,1.309-4.671,1.934-7.015l5.769-2.617,6.645-2.475c.034.057.068.131.108.2-.04-.08-.074-.148-.108-.211l22.087-8.227,25.853,15.993-12.779,24.4,13.632,3.311,7.465,7.732,8.011,8.233,14.269,14.554Zm72.342-8.614,7,9.115,13.524,17.455-26.445-.159-27.167-.028.011-.023-.091-.04-16.1-15.976-8.187-8.051-7.652-7.487,52.44,12.739.466.114,5.342-16.665Zm-1.075-30.456-11.754,36.652-3.96-2.976L290.62,269.252l3.738-21.523.023-.119-.193-.666,10.395-5.371-.006.011,17.512,7.766ZM393,202.144,370.108,216l-.444.267.307.421,8.893,11.874-47.655-.654,48.23,1.684L383.62,261.2l-42.182,6.611,38.854-5.143-14.821,5.365-18.2,6.617-24.493-26.069-.074-.074-16.955-7.522,24.59-12.71.45-19.1,82.2-19.037Z" transform="translate(0 0)" fill="#ff2770"/>
    <path id="Path_56" data-name="Path 56" d="M398.149,412.619,380.58,393.36l16.8,19.936Z" transform="translate(-136.29 -150.536)" fill="#ff2770"/>
  </g>
</svg>
