<?xml version="1.0" encoding="utf-8"?>
<!-- Generator: Adobe Illustrator 27.3.1, SVG Export Plug-In . SVG Version: 6.00 Build 0)  -->
<svg version="1.1" id="_x34_b0af217-ed72-4d9a-bf95-db8d00631a8c"
	 xmlns="http://www.w3.org/2000/svg" xmlns:xlink="http://www.w3.org/1999/xlink" x="0px" y="0px" viewBox="0 0 676.9 308.7"
	 style="enable-background:new 0 0 676.9 308.7;" xml:space="preserve">
<style type="text/css">
	.st0{fill:#FFFFFF;}
</style>
<g>
	<path class="st0" d="M385.6,210.6v27.7H379l-1-1.7v-0.2c-3.1,1.3-6.5,1.9-9.8,1.9c-15,0-27-12.4-27-27.7s12.1-27.6,27-27.6
		c5.9,0,11.5,1.9,16.2,5.5l-5.1,5.6c-3.3-2.2-7.1-3.4-11.1-3.4c-11.1,0-20.1,9-20.1,20.1c0,11.1,9,20.1,20.1,20.1l0,0
		c3.5,0,6.9-0.9,9.8-2.8v-10.7h-9.5v-6.7H385.6z"/>
	<path class="st0" d="M396.7,237.2v-53h7.2V230h24.5v7.2L396.7,237.2z"/>
	<path class="st0" d="M486.5,210.7c0,15.2-12,27.6-26.8,27.6s-26.8-12.4-26.8-27.6s12-27.8,26.8-27.8S486.5,195.3,486.5,210.7z
		 M478.9,210.7c0-10.6-8.5-19.2-19.1-19.2s-19.2,8.5-19.2,19.1c0,10.6,8.5,19.2,19.1,19.2C470.2,229.8,478.8,221.3,478.9,210.7z"/>
	<path class="st0" d="M531.8,222.1c-0.2,8.2-6.8,14.8-15,15h-20.3v-52.9h18c7.8,0.8,13.7,7.4,13.7,15.2c0,3.6-1.5,6.8-3.7,9.8
		c2.6,2.3,4.8,3.8,6.3,7.8C531.5,218.6,531.8,220.4,531.8,222.1z M503.8,207H514c4.2-0.1,7-4.2,7-8.3s-3.8-7.1-7.8-7.3h-9.5
		L503.8,207z M524.5,222.1c-0.1-3.1-1.9-5.9-4.8-7.3c-1-0.4-2-0.6-3-0.6h-13v15.6h13c1,0,2-0.2,3-0.6c2.7-1.3,4.5-3.9,4.8-6.9V222.1
		z"/>
	<path class="st0" d="M585.2,237.1h-7.5l-5.9-12.9h-22.4l-6,12.9H536l24.6-53L585.2,237.1z M568.6,217.4l-8.1-17.2l-8,17.2H568.6z"
		/>
	<path class="st0" d="M592.7,237.2v-53h7.2V230h24.5v7.2L592.7,237.2z"/>
</g>
<g>
	<path class="st0" d="M391.3,137.4c-5.8,12.5-22,16.5-34.1,11.9c-6.2-2.3-11.2-6.9-14.1-12.8c-1.3-3.1-2.4-6.2-2.2-9.5h16.5
		c0,3.9,2.9,7.2,6.4,8.5c5.1,2,11-0.1,13.6-4.9c1.3-2.6,1.1-5.8-0.7-8.2c-2.7-4.3-8.1-4.8-12.7-5.2c-5.5-0.6-10.7-2.5-15.3-5.7
		c-9-6.4-10.7-19.4-6.2-28.8c5.8-12.4,22-16.5,34.1-11.9c6.2,2.2,11.3,6.9,14.1,12.9c1.5,2.9,2.2,6.2,2.1,9.5h-16.4
		c-0.1-3.9-2.8-7.4-6.5-8.5c-3.8-1.6-8.2-0.8-11.3,1.9c-3.3,2.8-4,7.6-1.6,11.2c2.7,4.1,8.1,4.8,12.6,5.1c5.5,0.6,10.8,2.5,15.4,5.6
		C394.1,114.9,395.8,128,391.3,137.4z"/>
	<path class="st0" d="M460.9,84.8h-21.4v64.6h-14.4V84.8h-21.3V70.6h57.1L460.9,84.8z"/>
	<polygon class="st0" points="500.8,70.5 462.1,149.5 477.3,149.5 500.8,101.6 524.3,149.5 539.5,149.5 	"/>
	<path class="st0" d="M610.5,149.4h-17.7l-14-20.5l-4.4-6.2l-0.1-0.2h-10.6v27h-14.3V70.2h29c14.5,0,26.2,11.7,26.2,26.2
		c0,10-5.7,19-14.6,23.4h0.1L610.5,149.4z M590,96.4c0-6.1-4.7-11.2-10.8-11.6h-15.4v23.3h15.4C585.2,107.6,589.9,102.6,590,96.4z"
		/>
	<path class="st0" d="M676.9,84.8h-21.4v64.6H641V84.8h-21.3V70.6h57.1V84.8z"/>
</g>
<path class="st0" d="M100.1,53.1C44.8,53.1,0,98,0,153.3s44.9,100.1,100.2,100.1c55.3,0,100.1-44.9,100.1-100.2
	C200.3,97.9,155.5,53.1,100.1,53.1C100.2,53.1,100.2,53.1,100.1,53.1z M138.8,198.8l-38.7-83.3l-38.7,83.3H44.6l55.6-119.5
	l55.5,119.5H138.8z"/>
<rect x="270.2" class="st0" width="7.2" height="308.7"/>
</svg>
